<?xml version="1.0" encoding="utf-8"?><svg xmlns="http://www.w3.org/2000/svg" xmlns:xlink="http://www.w3.org/1999/xlink"><symbol fill="none" viewBox="0 0 40 40" id="action_speed" xmlns="http://www.w3.org/2000/svg"><circle cx="24" cy="20" r="16" fill="#546DDB"/><circle cx="24" cy="20" r="16" fill="#fff" fill-opacity=".2"/><path fill-rule="evenodd" clip-rule="evenodd" d="M20.246 15.112a.875.875 0 0 1 1.228.154l3.22 4.147a.875.875 0 0 1-1.382 1.073l-3.22-4.146a.875.875 0 0 1 .154-1.228Z" fill="#152242"/><path fill-rule="evenodd" clip-rule="evenodd" d="M23.335 20.568a.875.875 0 0 1 .097-1.233l7.774-6.642a.875.875 0 0 1 1.136 1.33l-7.774 6.642a.875.875 0 0 1-1.233-.097ZM24 6c.483 0 .875.392.875.875v3.5a.875.875 0 1 1-1.75 0v-3.5c0-.483.392-.875.875-.875ZM24 28.75c.483 0 .875.392.875.875v3.5a.875.875 0 1 1-1.75 0v-3.5c0-.483.392-.875.875-.875ZM38 20a.875.875 0 0 1-.875.875h-3.5a.875.875 0 1 1 0-1.75h3.5c.483 0 .875.392.875.875ZM15.25 20a.875.875 0 0 1-.875.875h-3.5a.875.875 0 1 1 0-1.75h3.5c.483 0 .875.392.875.875Z" fill="#152242"/><path d="M25.75 20a1.75 1.75 0 1 1-3.5 0 1.75 1.75 0 0 1 3.5 0Z" fill="#152242"/><path stroke="#546DDB" stroke-width="2" stroke-linecap="round" d="M5 8h4"/><path stroke="#fff" stroke-opacity=".2" stroke-width="2" stroke-linecap="round" d="M5 8h4"/><path stroke="#546DDB" stroke-width="2" stroke-linecap="round" d="M1 15h4"/><path stroke="#fff" stroke-opacity=".2" stroke-width="2" stroke-linecap="round" d="M1 15h4"/><path stroke="#546DDB" stroke-width="2" stroke-linecap="round" d="M1 23h4"/><path stroke="#fff" stroke-opacity=".2" stroke-width="2" stroke-linecap="round" d="M1 23h4"/><path stroke="#546DDB" stroke-width="2" stroke-linecap="round" d="M5 30h4"/><path stroke="#fff" stroke-opacity=".2" stroke-width="2" stroke-linecap="round" d="M5 30h4"/></symbol><symbol fill="none" viewBox="0 0 40 40" id="combat_drop_quantity" xmlns="http://www.w3.org/2000/svg"><path d="M1.993 8.635C3.055 7.04 5.978 5.756 7.306 5.314c-.885.885-2.79 3.055-3.32 4.649a23.518 23.518 0 0 0-.914 3.985H0c.221-1.107.93-3.72 1.993-5.313Z" fill="#FAA21E"/><path d="M1.993 8.635C3.055 7.04 5.978 5.756 7.306 5.314c-.885.885-2.79 3.055-3.32 4.649a23.518 23.518 0 0 0-.914 3.985H0c.221-1.107.93-3.72 1.993-5.313Z" fill="#000" fill-opacity=".1"/><path d="M6.642 9.299c1.063-1.594 1.993-3.321 2.657-3.985h21.254c.664.664 1.594 2.39 2.657 3.985 1.063 1.594 1.328 3.764 1.328 4.65H5.314c0-.886.265-3.056 1.328-4.65Z" fill="#FAA21E"/><path d="M6.642 9.299c1.063-1.594 1.993-3.321 2.657-3.985h21.254c.664.664 1.594 2.39 2.657 3.985 1.063 1.594 1.328 3.764 1.328 4.65H5.314c0-.886.265-3.056 1.328-4.65Z" fill="#000" fill-opacity=".1"/><path d="M37.86 8.635c-1.063-1.594-3.986-2.879-5.314-3.321.885.885 2.79 3.055 3.32 4.649.532 1.594.831 3.321.914 3.985h3.072c-.221-1.107-.93-3.72-1.993-5.313Z" fill="#FAA21E"/><path d="M37.86 8.635c-1.063-1.594-3.986-2.879-5.314-3.321.885.885 2.79 3.055 3.32 4.649.532 1.594.831 3.321.914 3.985h3.072c-.221-1.107-.93-3.72-1.993-5.313Z" fill="#000" fill-opacity=".1"/><path d="M2.657 15.94H0v19.927h2.657V15.94Z" fill="#FAA21E"/><path d="M2.657 15.94H0v19.927h2.657V15.94Z" fill="#000" fill-opacity=".1"/><path d="M39.852 15.94h-2.657v19.927h2.657V15.94Z" fill="#FAA21E"/><path d="M39.852 15.94h-2.657v19.927h2.657V15.94Z" fill="#000" fill-opacity=".1"/><path d="M14.612 15.94H4.65v19.927h30.553V15.94H25.24c0 3.985-.532 9.298-5.314 9.298s-5.314-5.313-5.314-9.298Z" fill="#FAA21E"/><path d="M14.612 15.94H4.65v19.927h30.553V15.94H25.24c0 3.985-.532 9.298-5.314 9.298s-5.314-5.313-5.314-9.298Z" fill="#000" fill-opacity=".1"/><path fill-rule="evenodd" clip-rule="evenodd" d="M15.94 15.94h7.971v2.658c0 2.656-1.328 5.313-3.985 5.313s-3.985-3.32-3.985-5.314v-2.656Zm3.986 5.314a1.993 1.993 0 1 0 0-3.985 1.993 1.993 0 0 0 0 3.985Z" fill="#FAA21E"/><path fill-rule="evenodd" clip-rule="evenodd" d="M15.94 15.94h7.971v2.658c0 2.656-1.328 5.313-3.985 5.313s-3.985-3.32-3.985-5.314v-2.656Zm3.986 5.314a1.993 1.993 0 1 0 0-3.985 1.993 1.993 0 0 0 0 3.985Z" fill="#fff" fill-opacity=".2"/></symbol><symbol fill="none" viewBox="0 0 40 40" id="efficiency" xmlns="http://www.w3.org/2000/svg"><path d="M32.213 7.11c-1.54-1.705-6.263-5.117-12.833-5.117-8.213 0-14.373 5.63-16.426 11.772-2.054 6.142-1.027 13.82 5.133 19.45 6.16 5.63 15.4 6.141 21.56 1.535 5.711-4.272 8.212-10.237 8.212-13.82" stroke="#2FC4A7" stroke-width="3.985"/><path d="M32.213 7.11c-1.54-1.705-6.263-5.117-12.833-5.117-8.213 0-14.373 5.63-16.426 11.772-2.054 6.142-1.027 13.82 5.133 19.45 6.16 5.63 15.4 6.141 21.56 1.535 5.711-4.272 8.212-10.237 8.212-13.82" stroke="#fff" stroke-opacity=".4" stroke-width="3.985"/><path d="M35.867 10.96h-9.963L35.867 0v10.96Z" fill="#2FC4A7"/><path d="M35.867 10.96h-9.963L35.867 0v10.96Z" fill="#fff" fill-opacity=".4"/><rect x="16.937" y="6.974" width="5.978" height="25.904" rx="2.989" fill="#2FC4A7"/><rect x="16.937" y="6.974" width="5.978" height="25.904" rx="2.989" fill="#000" fill-opacity=".4"/><rect x="32.878" y="16.937" width="5.978" height="25.904" rx="2.989" transform="rotate(90 32.878 16.937)" fill="#2FC4A7"/><rect x="32.878" y="16.937" width="5.978" height="25.904" rx="2.989" transform="rotate(90 32.878 16.937)" fill="#000" fill-opacity=".4"/></symbol><symbol fill="none" viewBox="0 0 40 40" id="gathering" xmlns="http://www.w3.org/2000/svg"><path d="M12.899 17.935c-2.655.504-7.984 1.85-10.3 2.543 3.31.578 10.697 1.873 13.774 2.428 3.847.694 11.54 2.428 15.76 2.197 4.219-.231 6.204-1.04 7.197-2.197.993-1.156.727-1.919-2.185-3.627-2.35-1.377-5.877-2.432-10.507-2.74-5.883-.392-10.506.783-13.74 1.396Z" fill="#FAA21E"/><path d="M12.899 17.935c-2.655.504-7.984 1.85-10.3 2.543 3.31.578 10.697 1.873 13.774 2.428 3.847.694 11.54 2.428 15.76 2.197 4.219-.231 6.204-1.04 7.197-2.197.993-1.156.727-1.919-2.185-3.627-2.35-1.377-5.877-2.432-10.507-2.74-5.883-.392-10.506.783-13.74 1.396Z" fill="#000" fill-opacity=".4"/><path d="M6.623 19.128C2.068 18.705-.04 20.375.001 20.749c.856 1.624 3.242 5.916 3.905 7.12 1.475 2.68 4.41 8.368 4.899 8.993.717 1.301 9 2.123 14.306 2.123 4.113 0 6.358-.916 6.97-1.498 1.345-2.415 4.353-7.72 5.625-9.618 1.59-2.373 3.546-3.872 4.035-4.996.489-1.124-.817-2.9-.49-2.124.415.98-.61 3.498-5.135 3.748-4.524.25-13.19-1.068-16.726-1.985-4.248-1.102-7.055-3.04-10.767-3.384Z" fill="#C57A09"/><path d="M7.274 12.338c-1.064 3.072-1.248 7.72-1.204 9.36l2.593.827c-.044-1.92-.03-7.14.608-9.347.799-2.76 2.529-5.52 4.525-7.56 1.997-2.04 3.51-2.952 5.67-3.365 1.449-.278 3.754.388 5.617 2.068 1.864 1.68 2.593 2.896 3.354 5.977.632 2.555.728 4.327.296 6.396l2.429.416c.089-1.28-.01-4.94-.861-8.012-1.065-3.84-4.05-6.473-7.378-7.673-3.328-1.2-5.581-.385-8.643 1.655-3.06 2.04-5.675 5.418-7.006 9.258Z" fill="#FAA21E"/><path d="M7.274 12.338c-1.064 3.072-1.248 7.72-1.204 9.36l2.593.827c-.044-1.92-.03-7.14.608-9.347.799-2.76 2.529-5.52 4.525-7.56 1.997-2.04 3.51-2.952 5.67-3.365 1.449-.278 3.754.388 5.617 2.068 1.864 1.68 2.593 2.896 3.354 5.977.632 2.555.728 4.327.296 6.396l2.429.416c.089-1.28-.01-4.94-.861-8.012-1.065-3.84-4.05-6.473-7.378-7.673-3.328-1.2-5.581-.385-8.643 1.655-3.06 2.04-5.675 5.418-7.006 9.258Z" fill="#000" fill-opacity=".6"/><ellipse cx="7.348" cy="23.025" rx="2.849" ry="1.628" transform="rotate(13.41 7.348 23.025)" fill="#FAA21E"/><ellipse cx="7.348" cy="23.025" rx="2.849" ry="1.628" transform="rotate(13.41 7.348 23.025)" fill="#000" fill-opacity=".6"/></symbol><symbol fill="none" viewBox="0 0 40 40" id="wisdom" xmlns="http://www.w3.org/2000/svg"><path d="M2.657 10.627 19.926 0l17.269 10.627v17.934l-17.27 11.29-17.268-11.29V10.627Z" fill="#546DDB"/><path d="m10.16 12.786 3.207 5.51 3.207-5.51h2.999l-4.566 7.482 4.68 7.628h-3.03l-3.29-5.614-3.29 5.614h-3.04l4.69-7.628-4.577-7.482h3.01ZM27.346 22.261h-3.933v-2.065h3.933c.685 0 1.239-.11 1.66-.332.423-.222.73-.526.924-.914.201-.394.301-.844.301-1.349 0-.477-.1-.923-.3-1.338a2.294 2.294 0 0 0-.924-1.018c-.422-.256-.976-.384-1.66-.384h-3.135v13.035h-2.605v-15.11h5.74c1.168 0 2.161.207 2.978.623.823.408 1.45.975 1.878 1.701.43.72.644 1.543.644 2.47 0 .976-.215 1.813-.644 2.512-.429.699-1.055 1.235-1.878 1.609-.817.373-1.81.56-2.979.56Z" fill="#FEFEFE"/></symbol></svg>